<?xml version="1.0" encoding="UTF-8" standalone="no"?>
<svg
   version="1.0"
   width="1250pt"
   height="1250pt"
   viewBox="0 0 1250 1250"
   preserveAspectRatio="xMidYMid"
   id="svg1"
   sodipodi:docname="icone-avantis.svg"
   xml:space="preserve"
   inkscape:version="1.4.4 (dcaf3e7d9e, 2026-05-05)"
   inkscape:export-filename="icone-avantis-2-redondo.png"
   inkscape:export-xdpi="96"
   inkscape:export-ydpi="96"
   xmlns:inkscape="http://www.inkscape.org/namespaces/inkscape"
   xmlns:sodipodi="http://sodipodi.sourceforge.net/DTD/sodipodi-0.dtd"
   xmlns:xlink="http://www.w3.org/1999/xlink"
   xmlns="http://www.w3.org/2000/svg"
   xmlns:svg="http://www.w3.org/2000/svg"><defs
     id="defs1"><linearGradient
       id="linearGradient15"
       inkscape:collect="always"><stop
         style="stop-color:#030c29;stop-opacity:1;"
         offset="0"
         id="stop15" /><stop
         style="stop-color:#28153b;stop-opacity:1;"
         offset="1"
         id="stop16" /></linearGradient><linearGradient
       id="linearGradient13"
       inkscape:collect="always"><stop
         style="stop-color:#030c29;stop-opacity:1;"
         offset="0"
         id="stop13" /><stop
         style="stop-color:#28153b;stop-opacity:1;"
         offset="1"
         id="stop14" /></linearGradient><linearGradient
       id="swatch6"><stop
         style="stop-color:#8077fd;stop-opacity:1;"
         offset="0"
         id="stop6" /><stop
         style="stop-color:#dd3ff4;stop-opacity:1;"
         offset="1"
         id="stop7" /></linearGradient><linearGradient
       inkscape:collect="always"
       xlink:href="#swatch6"
       id="linearGradient7"
       gradientUnits="userSpaceOnUse"
       x1="5927.2041"
       y1="8014.9624"
       x2="6611.4551"
       y2="4795.8169"
       gradientTransform="matrix(1.2154137,0,0,1.2202754,-1360.1648,-1468.6447)" /><filter
       style="color-interpolation-filters:sRGB"
       inkscape:label="Blur"
       id="filter7"
       x="-0.05469362"
       y="-0.096580567"
       width="1.1093872"
       height="1.1931611"><feGaussianBlur
         stdDeviation="25 40"
         result="fbSourceGraphic"
         id="feGaussianBlur7" /><feColorMatrix
         result="fbSourceGraphicAlpha"
         in="fbSourceGraphic"
         values="0 0 0 -1 0 0 0 0 -1 0 0 0 0 -1 0 0 0 0 1 0"
         id="feColorMatrix7" /><feGaussianBlur
         id="feGaussianBlur8"
         stdDeviation="25 40"
         result="fbSourceGraphic"
         in="fbSourceGraphic" /><feColorMatrix
         result="fbSourceGraphicAlpha"
         in="fbSourceGraphic"
         values="0 0 0 -1 0 0 0 0 -1 0 0 0 0 -1 0 0 0 0 1 0"
         id="feColorMatrix9" /><feGaussianBlur
         id="feGaussianBlur9"
         stdDeviation="25 25"
         result="blur"
         in="fbSourceGraphic" /></filter><filter
       style="color-interpolation-filters:sRGB;"
       inkscape:label="Blur"
       id="filter10"
       x="-0.11127273"
       y="-0.11127273"
       width="1.2225455"
       height="1.2225455"><feGaussianBlur
         stdDeviation="25 25"
         result="fbSourceGraphic"
         id="feGaussianBlur10" /><feColorMatrix
         result="fbSourceGraphicAlpha"
         in="fbSourceGraphic"
         values="0 0 0 -1 0 0 0 0 -1 0 0 0 0 -1 0 0 0 0 1 0"
         id="feColorMatrix10" /><feGaussianBlur
         id="feGaussianBlur11"
         stdDeviation="40 40"
         result="fbSourceGraphic"
         in="fbSourceGraphic" /><feColorMatrix
         result="fbSourceGraphicAlpha"
         in="fbSourceGraphic"
         values="0 0 0 -1 0 0 0 0 -1 0 0 0 0 -1 0 0 0 0 1 0"
         id="feColorMatrix11" /><feGaussianBlur
         id="feGaussianBlur12"
         stdDeviation="90 90"
         result="fbSourceGraphic"
         in="fbSourceGraphic" /><feColorMatrix
         result="fbSourceGraphicAlpha"
         in="fbSourceGraphic"
         values="0 0 0 -1 0 0 0 0 -1 0 0 0 0 -1 0 0 0 0 1 0"
         id="feColorMatrix12" /><feGaussianBlur
         id="feGaussianBlur13"
         stdDeviation="100 100"
         result="blur"
         in="fbSourceGraphic" /></filter><linearGradient
       inkscape:collect="always"
       xlink:href="#linearGradient13"
       id="linearGradient14"
       x1="4250.9546"
       y1="-8741.5859"
       x2="8268.3799"
       y2="-3953.8049"
       gradientUnits="userSpaceOnUse" /><linearGradient
       inkscape:collect="always"
       xlink:href="#linearGradient15"
       id="linearGradient16"
       x1="238.88165"
       y1="164.84209"
       x2="1011.1183"
       y2="1085.158"
       gradientUnits="userSpaceOnUse" /></defs><sodipodi:namedview
     id="namedview1"
     pagecolor="#ffffff"
     bordercolor="#000000"
     borderopacity="0.25"
     inkscape:showpageshadow="2"
     inkscape:pageopacity="0.0"
     inkscape:pagecheckerboard="0"
     inkscape:deskcolor="#d1d1d1"
     inkscape:document-units="pt"
     inkscape:zoom="0.44913122"
     inkscape:cx="848.30442"
     inkscape:cy="809.34031"
     inkscape:window-width="1916"
     inkscape:window-height="1017"
     inkscape:window-x="0"
     inkscape:window-y="0"
     inkscape:window-maximized="0"
     inkscape:current-layer="g1"
     inkscape:export-bgcolor="#ffffff00" /><metadata
     id="metadata1">
Created by potrace 1.16, written by Peter Selinger 2001-2019
</metadata><g
     transform="matrix(0.2,0,0,-0.2,-626.93295,1894.539)"
     fill="#000000"
     stroke="none"
     id="g1"
     style="display:inline"><circle
       style="display:none;fill:url(#linearGradient16);fill-opacity:1;stroke:#000000;stroke-width:1.387;stroke-opacity:0.100328"
       id="path14"
       cx="625"
       cy="625"
       r="600"
       transform="matrix(4.9999999,0,0,-4.9999999,3134.6648,9472.695)" /><rect
       style="display:none;fill:url(#linearGradient14);stroke-width:6.87114;stroke-dasharray:none"
       id="rect2"
       width="6250"
       height="6250"
       x="3134.6648"
       y="-9472.6953"
       ry="0"
       transform="scale(1,-1)"
       inkscape:label="fundo" /><path
       d="m 5979.983,7914.478 c -52.061,-39.5124 -98.105,-122.4504 -459.69,-780.1809 -429.041,-788.298 -717.0945,-1321.5583 -1176.5209,-2175.7511 -49.832,-92.7409 -87.5098,-176.94 -83.8634,-186.7021 6.077,-15.8636 75.3556,-18.3042 516.5508,-14.6434 509.2585,3.6608 509.2585,3.6608 560.3055,40.2691 46.186,32.9475 91.156,112.2653 469.15,817.5845 230.929,429.537 421.748,793.1791 426.61,807.8223 12.154,50.0313 32.816,28.0664 94.802,-96.4017 34.032,-68.3354 177.451,-342.8974 320.87,-612.5783 142.203,-269.6808 301.422,-568.6483 353.685,-666.2704 121.541,-230.632 120.326,-228.1915 170.158,-259.9187 41.324,-26.846 52.263,-26.846 540.859,-30.5068 273.468,-2.4405 510.474,-1.2202 525.059,3.6608 19.446,4.8811 25.524,12.2028 19.446,28.0663 -12.154,34.1677 -683.062,1275.1879 -1231.214,2278.2543 -165.296,302.6282 -326.946,599.1552 -358.547,658.9488 -69.278,130.5694 -116.68,185.4817 -176.235,201.3453 -23.093,6.1015 -136.126,12.2028 -250.375,12.2028 -193.251,0 -207.677,-5.9428 -261.05,-25.2008 z"
       id="path1"
       sodipodi:nodetypes="ccccccccscccccccccsc"
       style="display:inline;fill:url(#linearGradient7);stroke-width:1.21784"
       inkscape:label="letra" /><path
       d="M 6039.2172,7689.3483 C 5996.3832,7656.9684 5958.4998,7589.0017 5661,7050 5308,6404 5071,5967 4693,5267 c -41,-76 -72,-145 -69,-153 5,-13 62,-15 425,-12 419,3 419,3 461,33 38,27 75,92 386,670 190,352 347,650 351,662 10,41 27,23 78,-79 28,-56 146,-281 264,-502 117,-221 248,-466 291,-546 100,-189 99,-187 140,-213 34,-22 43,-22 445,-25 225,-2 420,-1 432,3 16,4 21,10 16,23 -10,28 -562,1045 -1013,1867 -136,248 -269,491 -295,540 -57,107 -96,152 -145,165 -19,5 -112,10 -206,10 -159,0 -170.869,-4.8701 -214.7828,-20.6517 z"
       id="path7"
       sodipodi:nodetypes="ccccccccscccccccccsc"
       style="display:none;fill:#a855f7;fill-opacity:0.15;filter:url(#filter7)"
       inkscape:label="blur"
       transform="matrix(1.0666705,0,0,1.1059993,-430.46825,-678.96675)" /><circle
       style="display:none;fill:#a855f7;fill-opacity:0.1;stroke-width:5.8774;filter:url(#filter10)"
       id="path9"
       cx="6259.6646"
       cy="-6347.6948"
       transform="scale(1,-1)"
       r="2750" /><circle
       style="display:none;fill:#4f46e5;fill-opacity:0.101961;stroke-width:5.8774;filter:url(#filter10)"
       id="circle11"
       cx="6259.6646"
       cy="-6347.6948"
       transform="matrix(0.96552187,0,0,-0.96552187,215.8215,218.85662)"
       r="2750" /></g></svg>
