<?xml version="1.0" encoding="UTF-8" standalone="no"?>
<!-- Created with Inkscape (http://www.inkscape.org/) -->

<svg
   width="1000"
   height="1000"
   viewBox="0 0 264.58333 264.58333"
   version="1.1"
   id="svg1"
   xml:space="preserve"
   inkscape:version="1.4.4 (dcaf3e7d9e, 2026-05-05)"
   sodipodi:docname="marciliortiz-logo.svg"
   xmlns:inkscape="http://www.inkscape.org/namespaces/inkscape"
   xmlns:sodipodi="http://sodipodi.sourceforge.net/DTD/sodipodi-0.dtd"
   xmlns:xlink="http://www.w3.org/1999/xlink"
   xmlns="http://www.w3.org/2000/svg"
   xmlns:svg="http://www.w3.org/2000/svg"><sodipodi:namedview
     id="namedview1"
     pagecolor="#ffffff"
     bordercolor="#000000"
     borderopacity="0.25"
     inkscape:showpageshadow="2"
     inkscape:pageopacity="0.0"
     inkscape:pagecheckerboard="0"
     inkscape:deskcolor="#d1d1d1"
     inkscape:document-units="mm"
     inkscape:zoom="0.70710678"
     inkscape:cx="509.11688"
     inkscape:cy="492.85343"
     inkscape:window-width="1916"
     inkscape:window-height="1017"
     inkscape:window-x="0"
     inkscape:window-y="0"
     inkscape:window-maximized="0"
     inkscape:current-layer="layer1" /><defs
     id="defs1"><linearGradient
       id="linearGradient1"
       inkscape:collect="always"><stop
         style="stop-color:#f9fffd;stop-opacity:1;"
         offset="0.39885011"
         id="stop1" /><stop
         style="stop-color:#3f18ab;stop-opacity:1;"
         offset="1"
         id="stop2" /></linearGradient><linearGradient
       inkscape:collect="always"
       xlink:href="#linearGradient1"
       id="linearGradient2"
       x1="65.898949"
       y1="102.73172"
       x2="198.68437"
       y2="161.85159"
       gradientUnits="userSpaceOnUse"
       gradientTransform="matrix(1.3304259,0,0,1.3304259,-43.712586,-43.712607)" /></defs><g
     inkscape:label="Camada 1"
     inkscape:groupmode="layer"
     id="layer1"><rect
       style="display:none;fill:#09090b;fill-opacity:1;stroke:none;stroke-width:99.879;stroke-opacity:0.100328"
       id="rect1"
       width="264.58334"
       height="264.58334"
       x="-5.0862632e-06"
       y="-5.0862632e-06" /><path
       style="fill:url(#linearGradient2);stroke-width:1.33043"
       d="m 169.50953,187.57112 c -10.54891,-1.52016 -18.17213,-4.40794 -25.77198,-9.76281 -4.07228,-2.86933 -9.95369,-8.75158 -12.90927,-12.91112 -2.99788,-4.21906 -6.55588,-11.43616 -7.9109,-16.04655 -0.92498,-3.14723 -1.9724,-8.76386 -2.24241,-12.02475 l -0.0946,-1.14263 -2.99208,3.2926 c -6.73357,7.40993 -19.14729,20.82351 -19.35242,20.91119 -0.12094,0.0516 -2.90468,-2.63181 -6.18611,-5.96333 -7.79108,-7.91002 -25.189975,-25.0815 -32.542872,-32.11752 l -5.808142,-5.55783 -0.08992,2.58788 c -0.04945,1.42334 -0.128665,17.24024 -0.176003,35.14868 l -0.08608,32.56079 -8.712211,0.0942 -8.712211,0.0942 -7.88e-4,-13.47048 c -4.34e-4,-7.40876 -0.10533,-32.12253 -0.233106,-54.91948 -0.143615,-25.622924 -0.106741,-41.449007 0.09659,-41.449007 0.449525,0 2.129613,1.392797 9.113523,7.555143 17.586397,15.517584 34.37966,31.259384 48.04427,45.036074 2.61097,2.63239 4.90783,4.78566 5.10412,4.78504 0.19629,-6.3e-4 2.81216,-2.64323 5.81303,-5.87244 3.00087,-3.22921 9.17862,-9.84713 13.72833,-14.70648 4.54971,-4.85937 10.75793,-11.52299 13.79604,-14.808069 3.0381,-3.285088 6.73334,-7.002497 8.21163,-8.260934 14.8799,-12.666853 34.14205,-16.476688 52.49292,-10.382525 15.89556,5.27877 28.75411,18.379223 34.20368,34.847118 2.17714,6.57903 2.70948,10.13398 2.68836,17.95243 -0.02,7.35855 -0.58112,11.00374 -2.64682,17.19151 -6.20733,18.59402 -22.024,32.62822 -41.16017,36.52159 -3.22647,0.65644 -13.17816,1.17587 -15.66438,0.8176 z m 14.68723,-18.39686 c 6.32004,-1.68176 11.69598,-4.79752 16.48971,-9.55705 4.98393,-4.94836 7.9688,-9.93868 10.09129,-16.8714 0.85332,-2.78719 0.92562,-3.52714 0.94827,-9.70539 0.0231,-6.32512 -0.0297,-6.87923 -0.97489,-10.20824 -5.29406,-18.64645 -22.31601,-29.890702 -41.26067,-27.25574 -7.73902,1.076407 -16.02838,5.44063 -21.44369,11.28981 -9.12472,9.85581 -12.42636,24.83349 -8.24539,37.4048 4.32105,12.99249 14.61354,22.34771 27.77209,25.24309 4.08526,0.89892 12.62398,0.72432 16.62328,-0.33988 z"
       id="path1" /></g></svg>
